<svg width="20" height="21" viewBox="0 0 20 21" fill="none" xmlns="http://www.w3.org/2000/svg">
<g id="announcement-02">
<path id="Icon" d="M3.33317 12.1673L4.64538 17.4161C4.68228 17.5638 4.70073 17.6376 4.72256 17.702C4.93581 18.3316 5.50277 18.7743 6.16527 18.8284C6.23309 18.834 6.30917 18.834 6.46133 18.834C6.65187 18.834 6.74714 18.834 6.8274 18.8262C7.62067 18.7493 8.24845 18.1215 8.32539 17.3282C8.33317 17.248 8.33317 17.1527 8.33317 16.9621V5.08399M15.4165 11.7507C17.0273 11.7507 18.3332 10.4448 18.3332 8.83399C18.3332 7.22316 17.0273 5.91732 15.4165 5.91732M8.5415 5.08399H5.4165C3.34543 5.08399 1.6665 6.76293 1.6665 8.83399C1.66651 10.9051 3.34544 12.584 5.4165 12.584H8.54151C10.0135 12.584 11.8142 13.3731 13.2034 14.1304C14.0139 14.5722 14.4191 14.7931 14.6845 14.7605C14.9306 14.7304 15.1167 14.6199 15.2609 14.4182C15.4165 14.2008 15.4165 13.7657 15.4165 12.8954V4.77256C15.4165 3.90232 15.4165 3.4672 15.2609 3.24973C15.1167 3.04808 14.9306 2.93758 14.6845 2.90743C14.4191 2.87493 14.0139 3.09582 13.2034 3.53762C11.8142 4.29492 10.0135 5.08399 8.5415 5.08399Z" stroke="#344054" stroke-width="2" stroke-linecap="round" stroke-linejoin="round"/>
</g>
</svg>
