<svg width="20" height="21" viewBox="0 0 20 21" fill="none" xmlns="http://www.w3.org/2000/svg">
<g id="coins-stacked-01">
<path id="Icon" d="M9.99984 14.6667C9.99984 16.9679 11.8653 18.8333 14.1665 18.8333C16.4677 18.8333 18.3332 16.9679 18.3332 14.6667C18.3332 12.3655 16.4677 10.5 14.1665 10.5C11.8653 10.5 9.99984 12.3655 9.99984 14.6667ZM9.99984 14.6667C9.99984 13.7285 10.3099 12.8627 10.8332 12.1663V4.66667M9.99984 14.6667C9.99984 15.3545 10.1665 16.0033 10.4616 16.5751C9.75956 17.1681 8.13804 17.5833 6.24984 17.5833C3.71853 17.5833 1.6665 16.8371 1.6665 15.9167V4.66667M10.8332 4.66667C10.8332 5.58714 8.78114 6.33333 6.24984 6.33333C3.71853 6.33333 1.6665 5.58714 1.6665 4.66667M10.8332 4.66667C10.8332 3.74619 8.78114 3 6.24984 3C3.71853 3 1.6665 3.74619 1.6665 4.66667M1.6665 12.1667C1.6665 13.0871 3.71853 13.8333 6.24984 13.8333C8.07401 13.8333 9.64927 13.4458 10.387 12.8848M10.8332 8.41667C10.8332 9.33714 8.78114 10.0833 6.24984 10.0833C3.71853 10.0833 1.6665 9.33714 1.6665 8.41667" stroke="#344054" stroke-width="1.6" stroke-linecap="round" stroke-linejoin="round"/>
</g>
</svg>
