<svg xmlns="http://www.w3.org/2000/svg" width="21" height="21" viewBox="0 0 21 21" fill="none">
<g opacity="0.12">
<path d="M7.5 3H4.33333C3.86662 3 3.63327 3 3.45501 3.09083C3.29821 3.17072 3.17072 3.29821 3.09083 3.45501C3 3.63327 3 3.86662 3 4.33333V7.5C3 7.96671 3 8.20007 3.09083 8.37833C3.17072 8.53513 3.29821 8.66261 3.45501 8.74251C3.63327 8.83333 3.86662 8.83333 4.33333 8.83333H7.5C7.96671 8.83333 8.20007 8.83333 8.37833 8.74251C8.53513 8.66261 8.66261 8.53513 8.74251 8.37833C8.83333 8.20007 8.83333 7.96671 8.83333 7.5V4.33333C8.83333 3.86662 8.83333 3.63327 8.74251 3.45501C8.66261 3.29821 8.53513 3.17072 8.37833 3.09083C8.20007 3 7.96671 3 7.5 3Z" fill="#344054"/>
<path d="M16.6667 3H13.5C13.0333 3 12.7999 3 12.6217 3.09083C12.4649 3.17072 12.3374 3.29821 12.2575 3.45501C12.1667 3.63327 12.1667 3.86662 12.1667 4.33333V7.5C12.1667 7.96671 12.1667 8.20007 12.2575 8.37833C12.3374 8.53513 12.4649 8.66261 12.6217 8.74251C12.7999 8.83333 13.0333 8.83333 13.5 8.83333H16.6667C17.1334 8.83333 17.3667 8.83333 17.545 8.74251C17.7018 8.66261 17.8293 8.53513 17.9092 8.37833C18 8.20007 18 7.96671 18 7.5V4.33333C18 3.86662 18 3.63327 17.9092 3.45501C17.8293 3.29821 17.7018 3.17072 17.545 3.09083C17.3667 3 17.1334 3 16.6667 3Z" fill="#344054"/>
<path d="M16.6667 12.1667H13.5C13.0333 12.1667 12.7999 12.1667 12.6217 12.2575C12.4649 12.3374 12.3374 12.4649 12.2575 12.6217C12.1667 12.7999 12.1667 13.0333 12.1667 13.5V16.6667C12.1667 17.1334 12.1667 17.3667 12.2575 17.545C12.3374 17.7018 12.4649 17.8293 12.6217 17.9092C12.7999 18 13.0333 18 13.5 18H16.6667C17.1334 18 17.3667 18 17.545 17.9092C17.7018 17.8293 17.8293 17.7018 17.9092 17.545C18 17.3667 18 17.1334 18 16.6667V13.5C18 13.0333 18 12.7999 17.9092 12.6217C17.8293 12.4649 17.7018 12.3374 17.545 12.2575C17.3667 12.1667 17.1334 12.1667 16.6667 12.1667Z" fill="#344054"/>
<path d="M7.5 12.1667H4.33333C3.86662 12.1667 3.63327 12.1667 3.45501 12.2575C3.29821 12.3374 3.17072 12.4649 3.09083 12.6217C3 12.7999 3 13.0333 3 13.5V16.6667C3 17.1334 3 17.3667 3.09083 17.545C3.17072 17.7018 3.29821 17.8293 3.45501 17.9092C3.63327 18 3.86662 18 4.33333 18H7.5C7.96671 18 8.20007 18 8.37833 17.9092C8.53513 17.8293 8.66261 17.7018 8.74251 17.545C8.83333 17.3667 8.83333 17.1334 8.83333 16.6667V13.5C8.83333 13.0333 8.83333 12.7999 8.74251 12.6217C8.66261 12.4649 8.53513 12.3374 8.37833 12.2575C8.20007 12.1667 7.96671 12.1667 7.5 12.1667Z" fill="#344054"/>
</g>
<path d="M7.5 3H4.33333C3.86662 3 3.63327 3 3.45501 3.09083C3.29821 3.17072 3.17072 3.29821 3.09083 3.45501C3 3.63327 3 3.86662 3 4.33333V7.5C3 7.96671 3 8.20007 3.09083 8.37833C3.17072 8.53513 3.29821 8.66261 3.45501 8.74251C3.63327 8.83333 3.86662 8.83333 4.33333 8.83333H7.5C7.96671 8.83333 8.20007 8.83333 8.37833 8.74251C8.53513 8.66261 8.66261 8.53513 8.74251 8.37833C8.83333 8.20007 8.83333 7.96671 8.83333 7.5V4.33333C8.83333 3.86662 8.83333 3.63327 8.74251 3.45501C8.66261 3.29821 8.53513 3.17072 8.37833 3.09083C8.20007 3 7.96671 3 7.5 3Z" stroke="#344054" stroke-width="1.6" stroke-linecap="round" stroke-linejoin="round"/>
<path d="M16.6667 3H13.5C13.0333 3 12.7999 3 12.6217 3.09083C12.4649 3.17072 12.3374 3.29821 12.2575 3.45501C12.1667 3.63327 12.1667 3.86662 12.1667 4.33333V7.5C12.1667 7.96671 12.1667 8.20007 12.2575 8.37833C12.3374 8.53513 12.4649 8.66261 12.6217 8.74251C12.7999 8.83333 13.0333 8.83333 13.5 8.83333H16.6667C17.1334 8.83333 17.3667 8.83333 17.545 8.74251C17.7018 8.66261 17.8293 8.53513 17.9092 8.37833C18 8.20007 18 7.96671 18 7.5V4.33333C18 3.86662 18 3.63327 17.9092 3.45501C17.8293 3.29821 17.7018 3.17072 17.545 3.09083C17.3667 3 17.1334 3 16.6667 3Z" stroke="#344054" stroke-width="1.6" stroke-linecap="round" stroke-linejoin="round"/>
<path d="M16.6667 12.1667H13.5C13.0333 12.1667 12.7999 12.1667 12.6217 12.2575C12.4649 12.3374 12.3374 12.4649 12.2575 12.6217C12.1667 12.7999 12.1667 13.0333 12.1667 13.5V16.6667C12.1667 17.1334 12.1667 17.3667 12.2575 17.545C12.3374 17.7018 12.4649 17.8293 12.6217 17.9092C12.7999 18 13.0333 18 13.5 18H16.6667C17.1334 18 17.3667 18 17.545 17.9092C17.7018 17.8293 17.8293 17.7018 17.9092 17.545C18 17.3667 18 17.1334 18 16.6667V13.5C18 13.0333 18 12.7999 17.9092 12.6217C17.8293 12.4649 17.7018 12.3374 17.545 12.2575C17.3667 12.1667 17.1334 12.1667 16.6667 12.1667Z" stroke="#344054" stroke-width="1.6" stroke-linecap="round" stroke-linejoin="round"/>
<path d="M7.5 12.1667H4.33333C3.86662 12.1667 3.63327 12.1667 3.45501 12.2575C3.29821 12.3374 3.17072 12.4649 3.09083 12.6217C3 12.7999 3 13.0333 3 13.5V16.6667C3 17.1334 3 17.3667 3.09083 17.545C3.17072 17.7018 3.29821 17.8293 3.45501 17.9092C3.63327 18 3.86662 18 4.33333 18H7.5C7.96671 18 8.20007 18 8.37833 17.9092C8.53513 17.8293 8.66261 17.7018 8.74251 17.545C8.83333 17.3667 8.83333 17.1334 8.83333 16.6667V13.5C8.83333 13.0333 8.83333 12.7999 8.74251 12.6217C8.66261 12.4649 8.53513 12.3374 8.37833 12.2575C8.20007 12.1667 7.96671 12.1667 7.5 12.1667Z" stroke="#344054" stroke-width="1.6" stroke-linecap="round" stroke-linejoin="round"/>
</svg>