<svg width="20" height="21" viewBox="0 0 20 21" fill="none" xmlns="http://www.w3.org/2000/svg">
<g id="heart-hand">
<path id="Icon" d="M4.99984 17.24H7.17508C7.45869 17.24 7.74057 17.2738 8.01551 17.3413L10.3139 17.8998C10.8126 18.0213 11.3322 18.0331 11.8361 17.9352L14.3773 17.4408C15.0486 17.31 15.6662 16.9886 16.1501 16.5178L17.9481 14.7688C18.4615 14.2702 18.4615 13.4611 17.9481 12.9616C17.4858 12.5119 16.7538 12.4613 16.2308 12.8427L14.1353 14.3714C13.8352 14.5908 13.4701 14.7089 13.0945 14.7089H11.0711L12.3591 14.7089C13.085 14.7089 13.6731 14.1368 13.6731 13.4307V13.175C13.6731 12.5886 13.2628 12.0774 12.6782 11.9356L10.6903 11.4522C10.3668 11.3737 10.0355 11.3341 9.70245 11.3341C8.89845 11.3341 7.44308 11.9997 7.44308 11.9997L4.99984 13.0215M1.6665 12.6674L1.6665 17.5007C1.6665 17.9674 1.6665 18.2008 1.75733 18.3791C1.83723 18.5359 1.96471 18.6633 2.12151 18.7432C2.29977 18.8341 2.53313 18.8341 2.99984 18.8341H3.6665C4.13321 18.8341 4.36657 18.8341 4.54483 18.7432C4.70163 18.6633 4.82911 18.5359 4.90901 18.3791C4.99984 18.2008 4.99984 17.9674 4.99984 17.5007V12.6674C4.99984 12.2007 4.99984 11.9673 4.90901 11.7891C4.82911 11.6323 4.70163 11.5048 4.54483 11.4249C4.36657 11.3341 4.13321 11.3341 3.6665 11.3341H2.99984C2.53313 11.3341 2.29977 11.3341 2.12151 11.4249C1.96471 11.5048 1.83723 11.6323 1.75733 11.7891C1.6665 11.9673 1.6665 12.2007 1.6665 12.6674ZM14.326 3.49427C13.8286 2.45356 12.682 1.90221 11.5669 2.43437C10.4517 2.96653 9.97667 4.22854 10.4435 5.33642C10.7321 6.02111 11.5588 7.35073 12.1482 8.26659C12.366 8.60498 12.4749 8.77418 12.634 8.87317C12.7704 8.95807 12.9412 9.00383 13.1018 8.99852C13.2891 8.99233 13.468 8.90025 13.8258 8.71608C14.7942 8.21765 16.175 7.47952 16.7672 7.03083C17.7255 6.30483 17.9628 4.97037 17.2454 3.95593C16.528 2.94148 15.2771 2.84166 14.326 3.49427Z" stroke="#344054" stroke-width="1.6" stroke-linecap="round" stroke-linejoin="round"/>
</g>
</svg>
