<svg width="20" height="21" viewBox="0 0 20 21" fill="none" xmlns="http://www.w3.org/2000/svg">
<g id="laptop-01">
<path id="Icon" d="M2.49984 13.834V6.50065C2.49984 5.56723 2.49984 5.10052 2.68149 4.744C2.84128 4.4304 3.09625 4.17543 3.40985 4.01564C3.76637 3.83398 4.23308 3.83398 5.1665 3.83398H14.8332C15.7666 3.83398 16.2333 3.83398 16.5898 4.01564C16.9034 4.17543 17.1584 4.4304 17.3182 4.744C17.4998 5.10052 17.4998 5.56723 17.4998 6.50065V13.834H13.0521C12.8483 13.834 12.7464 13.834 12.6505 13.857C12.5654 13.8774 12.4842 13.9111 12.4096 13.9568C12.3255 14.0083 12.2534 14.0804 12.1093 14.2245L12.057 14.2768C11.9129 14.4209 11.8408 14.493 11.7567 14.5445C11.6822 14.5902 11.6009 14.6239 11.5159 14.6443C11.42 14.6673 11.318 14.6673 11.1142 14.6673H8.88546C8.68163 14.6673 8.57972 14.6673 8.48381 14.6443C8.39878 14.6239 8.31749 14.5902 8.24293 14.5445C8.15884 14.493 8.08677 14.4209 7.94265 14.2768L7.89036 14.2245C7.74624 14.0804 7.67417 14.0083 7.59007 13.9568C7.51551 13.9111 7.43423 13.8774 7.3492 13.857C7.25329 13.834 7.15138 13.834 6.94755 13.834H2.49984ZM2.49984 13.834C2.0396 13.834 1.6665 14.2071 1.6665 14.6673V14.9451C1.6665 15.4617 1.6665 15.7201 1.72329 15.932C1.87741 16.5072 2.32665 16.9564 2.90181 17.1105C3.11375 17.1673 3.37208 17.1673 3.88873 17.1673H16.1109C16.6276 17.1673 16.8859 17.1673 17.0979 17.1105C17.673 16.9564 18.1223 16.5072 18.2764 15.932C18.3332 15.7201 18.3332 15.4617 18.3332 14.9451C18.3332 14.6868 18.3332 14.5576 18.3048 14.4516C18.2277 14.1641 18.0031 13.9394 17.7155 13.8624C17.6095 13.834 17.4804 13.834 17.2221 13.834H16.6665" stroke="#344054" stroke-width="1.6" stroke-linecap="round" stroke-linejoin="round"/>
</g>
</svg>
