<svg width="20" height="21" viewBox="0 0 20 21" fill="none" xmlns="http://www.w3.org/2000/svg">
<g id="server-03">
<path id="Icon" d="M18.3332 15.0833L17.7567 6.72479C17.6662 5.41253 17.621 4.7564 17.3366 4.25902C17.0862 3.82111 16.7091 3.4692 16.255 3.24952C15.7393 3 15.0816 3 13.7662 3H6.23348C4.9181 3 4.26041 3 3.74464 3.24952C3.29054 3.4692 2.91352 3.82111 2.66312 4.25902C2.37871 4.7564 2.33346 5.41253 2.24296 6.72479L1.6665 15.0833M18.3332 15.0833C18.3332 16.6942 17.0273 18 15.4165 18H4.58317C2.97234 18 1.6665 16.6942 1.6665 15.0833M18.3332 15.0833C18.3332 13.4725 17.0273 12.1667 15.4165 12.1667H4.58317C2.97234 12.1667 1.6665 13.4725 1.6665 15.0833M4.99984 15.0833H5.00817M9.99984 15.0833H14.9998" stroke="#344054" stroke-width="1.6" stroke-linecap="round" stroke-linejoin="round"/>
</g>
</svg>
