<svg width="20" height="21" viewBox="0 0 20 21" fill="none" xmlns="http://www.w3.org/2000/svg">
<g id="users-01">
<path id="Fill" opacity="0.12" d="M7.91683 9.66667C9.75778 9.66667 11.2502 8.17428 11.2502 6.33333C11.2502 4.49238 9.75778 3 7.91683 3C6.07588 3 4.5835 4.49238 4.5835 6.33333C4.5835 8.17428 6.07588 9.66667 7.91683 9.66667Z" fill="#344054"/>
<path id="Icon" d="M18.3332 18V16.3333C18.3332 14.7801 17.2709 13.4751 15.8332 13.105M12.9165 3.2423C14.1381 3.73679 14.9998 4.93443 14.9998 6.33333C14.9998 7.73224 14.1381 8.92988 12.9165 9.42437M14.1665 18C14.1665 16.4469 14.1665 15.6703 13.9128 15.0577C13.5745 14.241 12.9255 13.592 12.1088 13.2537C11.4962 13 10.7196 13 9.1665 13H6.6665C5.11337 13 4.3368 13 3.72423 13.2537C2.90747 13.592 2.25855 14.241 1.92024 15.0577C1.6665 15.6703 1.6665 16.4469 1.6665 18M11.2498 6.33333C11.2498 8.17428 9.75745 9.66667 7.9165 9.66667C6.07555 9.66667 4.58317 8.17428 4.58317 6.33333C4.58317 4.49238 6.07555 3 7.9165 3C9.75745 3 11.2498 4.49238 11.2498 6.33333Z" stroke="#344054" stroke-width="1.6" stroke-linecap="round" stroke-linejoin="round"/>
</g>
</svg>
